<svg width="159" height="30" viewBox="0 0 159 30" fill="none" xmlns="http://www.w3.org/2000/svg">
<path fill-rule="evenodd" clip-rule="evenodd" d="M30.0026 14.9872C30.0012 14.7698 29.995 14.5516 29.9844 14.3322C29.9434 13.3635 29.8088 12.4011 29.5824 11.4584C27.9906 4.8842 22.0672 0 15.001 0C6.7154 0 0 6.7166 0 14.999V15.0306C0.00159733 15.2484 0.00766527 15.4661 0.0182 15.6836C0.0313887 16.0062 0.0552685 16.3282 0.0898 16.6492C0.9008 24.0608 7.1098 29.8488 14.7014 29.9976C15.0267 30.0033 15.3521 29.9988 15.6772 29.9842C16.7628 29.9356 17.8401 29.7703 18.8904 29.4912C25.291 27.778 30.0026 21.9388 30.0026 14.999V14.9872ZM21.2008 6.6178C21.3922 7.021 22.0412 7.2292 22.919 7.4718C24.4574 7.8968 24.489 9.3224 23.685 10.307C22.7036 11.509 21.722 11.0608 20.9678 9.3708C20.4964 8.3162 19.8762 8.0622 19.4398 8.3378C18.962 8.6388 19.1508 9.3624 19.6854 10.1948C20.0348 10.7382 19.8782 11.38 19.5156 11.7594C19.134 12.1556 18.5088 12.3146 17.8304 12.164C16.6194 11.8982 15.431 10.279 16.2988 6.7412C16.6131 5.4625 16.0956 4.83979 15.6717 4.32964C15.6224 4.27039 15.5745 4.21266 15.5292 4.1556C15.3124 3.8814 15.2872 3.716 15.3658 3.6038C15.4506 3.4852 15.6534 3.4754 16.0092 3.5504C16.1976 3.58963 16.4231 3.65224 16.6621 3.71861C17.0129 3.81604 17.3929 3.92157 17.728 3.9732C18.1012 4.0322 18.5222 4.0484 18.9684 4.03C20.1736 3.9852 21.0632 4.1704 21.9724 4.622C23.518 5.3856 23.6752 6.7012 22.815 6.5974C22.5816 6.56862 22.2923 6.42132 22.0261 6.28578C21.9556 6.24989 21.8868 6.21482 21.821 6.183C21.6084 6.0792 21.426 6.0462 21.2906 6.145C21.1656 6.2348 21.1102 6.427 21.2008 6.6178ZM15.9837 14.2677C17.1007 14.9006 18.459 15.6703 20.1876 16.706C24.4856 19.283 23.9958 22.424 23.013 24.0256C22.4544 24.9352 21.2822 25.9162 19.8628 26.5698C19.6474 26.6666 19.4166 26.6364 19.3598 26.4612C19.3094 26.3096 19.43 26.1358 19.5704 25.9682C21.4196 23.5692 20.0452 21.37 17.0594 19.6632C16.0343 19.0763 15.1821 18.6054 14.4002 18.1733C13.5003 17.6759 12.6934 17.23 11.8228 16.7178C7.0528 13.9094 6.1318 11.464 5.9444 10.016C5.475 6.3604 8.4974 3.622 11.6074 2.962C11.7008 2.9418 11.9498 2.9018 12.0306 3.1094C12.1106 3.3148 11.9266 3.4648 11.8194 3.53C10.4288 4.2958 9.0628 5.9206 9.2116 7.7256C9.295 8.734 9.7266 10.1836 12.455 12.1288C13.402 12.8048 14.4717 13.4109 15.9837 14.2677ZM14.065 25.9668C14.5212 26.1658 15.0684 26.3356 15.429 26.4394C15.9944 26.602 15.8822 27.17 15.3152 27.25C13.52 27.5024 10.5972 27.048 8.6194 25.7964C6.886 24.701 5.851 23.3322 5.1838 21.9416C4.4998 20.5208 4.1758 18.797 4.9046 18.882C5.13503 18.9089 5.34319 19.2094 5.65452 19.659C5.80687 19.879 5.98393 20.1347 6.2004 20.4114C6.6516 20.9872 7.0648 21.4716 7.3778 21.5382C7.518 21.5684 7.633 21.5054 7.7334 21.3146C7.78039 21.2253 7.83124 21.1157 7.8882 20.993C8.05841 20.6262 8.28308 20.1421 8.6216 19.7312C8.9844 19.3118 9.4234 19.1148 9.6782 20.1406C9.8016 20.6526 9.8984 21.1772 9.9552 21.6372C9.95785 21.6584 9.96047 21.6794 9.96304 21.7001C10.0389 22.3091 10.0848 22.6772 10.3018 22.7824C10.5172 22.8876 10.8834 22.7522 11.4756 22.5312C11.898 22.3728 12.443 22.1716 13.132 21.9744C13.7656 21.7922 14.169 21.8876 13.7606 22.872C13.5684 23.337 13.3748 23.7284 12.6872 24.7164C12.5672 24.8916 12.5904 25.062 12.7406 25.2128C12.97 25.44 13.4898 25.7156 14.065 25.9668ZM50.678 7.56208V18.2089H53.8922V5.47428H50.391C50.0838 5.47428 49.921 5.74088 50.1662 6.04808C50.5548 6.47748 50.678 6.84568 50.678 7.56208ZM54.2402 24.4939V22.1801H43.1844C42.5494 22.1801 42.3448 21.9959 42.3448 21.3621V17.1649H38.8652C38.5782 17.1649 38.4144 17.4509 38.6596 17.7581C38.9466 18.1061 39.09 18.4135 39.09 18.8225V21.7915C39.09 23.8589 40.073 24.4939 42.5494 24.4939H54.2402ZM40.3384 6.39608C40.7282 6.82548 40.7688 7.19368 40.7688 7.86928V8.73008C40.7688 11.3297 38.4552 13.1103 35.7324 14.1757L36.6746 15.9561C36.94 16.4691 38.5376 15.6907 39.786 14.8715C40.8716 14.1553 41.8128 13.2537 42.5708 12.1691C43.2046 13.0289 44.1672 13.8481 45.1704 14.4615C46.9318 15.5471 47.935 15.7313 48.2004 15.2399L49.0816 13.5815C46.7068 12.7837 44.0858 11.2067 44.0858 8.52448V5.80188H40.544C40.257 5.80188 40.0932 6.08868 40.3384 6.39608ZM70.598 7.56268V18.4955H73.8122V12.6195H76.1464V10.3057H73.8122V5.47368H70.3112C70.0038 5.47368 69.84 5.74028 70.1066 6.04768C70.4952 6.51868 70.598 6.84628 70.598 7.56268ZM64.7424 11.9847C64.7424 13.2951 63.9234 14.3807 62.5112 14.3807C61.0776 14.3807 60.2788 13.2951 60.2788 11.9847C60.2788 10.5927 61.0776 9.52848 62.5112 9.52848C63.9234 9.52848 64.7424 10.5927 64.7424 11.9847ZM74.0586 24.4945V22.1807H63.2072C62.5722 22.1807 62.3678 21.9965 62.3678 21.3617V17.9837H58.888C58.601 17.9837 58.4372 18.2695 58.6824 18.5767C58.9694 18.9247 59.1128 19.2321 59.1128 19.6421V21.7909C59.1128 23.8595 60.0946 24.4945 62.5722 24.4945H74.0586ZM60.5862 5.47368C60.9758 5.94488 61.0166 6.27248 61.0166 6.98868V7.19428H56.0422V9.44608H58.191C57.5774 10.1419 57.208 11.0221 57.208 12.0873C57.208 14.6667 59.1332 16.6325 62.5112 16.6325C65.9096 16.6325 67.8142 14.6667 67.8142 12.0873C67.8142 11.0435 67.4246 10.1633 66.7896 9.44608H68.9396V7.19428H64.2918V4.90088H60.7916C60.4844 4.90088 60.3206 5.16648 60.5862 5.47368ZM90.6718 18.8007V22.4239H82.8302C82.3602 22.4239 82.175 22.2601 82.175 21.8307V18.8007H90.6718ZM78.5924 17.2643C78.8794 17.6123 79.0228 17.9195 79.0228 18.3285V22.4645C79.0228 23.7343 79.842 24.5941 81.2746 24.5941H93.825V17.1219C93.825 16.7739 93.6816 16.6711 93.354 16.6711H78.797C78.511 16.6711 78.3472 16.9569 78.5924 17.2643ZM90.2008 8.11308C90.5488 8.11308 90.7126 8.25648 90.6922 8.54348L90.324 12.5757H76.7092V14.8285H96.2202V12.5757H93.4556L93.8454 8.48148C94.0296 6.49528 93.5178 5.88068 91.2244 5.88068H79.1664V8.11308H90.2008ZM109.562 17.3875C108.764 17.2847 107.883 17.2237 106.942 17.2237C105.98 17.2237 105.1 17.2847 104.301 17.3875V15.9131H109.562V17.3875ZM106.942 7.23308C109.932 7.23308 111.282 7.74488 111.282 8.89168C111.282 10.0383 109.932 10.5491 106.942 10.5491C103.953 10.5491 102.602 10.0383 102.602 8.89168C102.602 7.74488 103.953 7.23308 106.942 7.23308ZM106.942 19.4143C109.891 19.4143 111.445 19.9057 111.445 21.1135C111.445 22.3223 109.891 22.8127 106.942 22.8127C103.995 22.8127 102.439 22.3223 102.439 21.1135C102.439 19.9057 103.995 19.4143 106.942 19.4143ZM106.942 12.6989C112.163 12.6989 114.435 11.1635 114.435 8.89168C114.435 6.61848 112.163 5.08308 106.942 5.08308C101.722 5.08308 99.4484 6.61848 99.4484 8.89168C99.4484 11.1635 101.722 12.6989 106.942 12.6989ZM106.942 25.0033C111.774 25.0033 114.599 23.5911 114.599 21.1135C114.599 19.9057 113.903 18.9431 112.634 18.2675H112.695V15.9131H116.688V13.7021H97.1764V15.9131H101.169V18.2675H101.23C99.9602 18.9431 99.2858 19.9057 99.2858 21.1135C99.2858 23.5911 102.11 25.0033 106.942 25.0033ZM130.884 8.81168C131.293 8.81168 131.435 8.97548 131.416 9.36428L130.884 20.6031H117.637V22.9383H137.147V20.6031H134.078L134.671 9.71228C134.773 7.15328 134.098 6.47768 131.293 6.47768H119.909V8.81168H130.884ZM152.167 22.4463H143.957C143.63 22.4463 143.466 22.3447 143.466 21.9559V21.2589H152.167V22.4463ZM151.962 7.56268V8.52528H140.169C139.863 8.52528 139.719 8.79088 139.965 9.11848C140.354 9.58948 140.497 9.93748 140.497 10.6131V11.7181C140.497 12.9473 140.927 13.4387 142.34 13.4387H155.361V11.4525H144.06C143.753 11.4525 143.63 11.3915 143.63 11.0639V10.4493H155.094V6.02748C155.094 5.67948 154.951 5.57668 154.623 5.57668H140.456V7.56268H151.962ZM139.883 18.0865C140.169 18.4345 140.313 18.7407 140.313 19.1507V22.4667C140.313 23.7365 141.132 24.5963 142.564 24.5963H155.319V17.4923H152.167V19.1701H143.466V17.4923H140.088C139.802 17.4923 139.637 17.7793 139.883 18.0865ZM157.613 16.5919V14.4215H138.102V16.5919H146.209V18.4131H149.526V16.5919H157.613Z" fill="black"/>
</svg>
