<svg width="22" height="22" viewBox="0 0 22 22" fill="none" xmlns="http://www.w3.org/2000/svg">
<path d="M11.0108 1.98125C13.9516 1.98125 14.2999 1.99414 15.4564 2.04571C16.5313 2.09299 17.1117 2.27349 17.4986 2.42391C18.0103 2.62161 18.38 2.86228 18.7627 3.24477C19.1496 3.63157 19.3861 3.99687 19.5838 4.5083C19.7343 4.8951 19.9149 5.47959 19.9622 6.54972C20.0138 7.7101 20.0267 8.05821 20.0267 10.9936C20.0267 13.9332 20.0138 14.2813 19.9622 15.4374C19.9149 16.5118 19.7343 17.092 19.5838 17.4788C19.3861 17.9902 19.1453 18.3598 18.7627 18.7423C18.3757 19.1291 18.0103 19.3655 17.4986 19.5632C17.1117 19.7136 16.527 19.8941 15.4564 19.9414C14.2956 19.993 13.9473 20.0059 11.0108 20.0059C8.07006 20.0059 7.72181 19.993 6.56527 19.9414C5.49042 19.8941 4.91 19.7136 4.52306 19.5632C4.01143 19.3655 3.64168 19.1248 3.25904 18.7423C2.87209 18.3555 2.63562 17.9902 2.43785 17.4788C2.28737 17.092 2.1068 16.5075 2.0595 15.4374C2.00791 14.277 1.99501 13.9289 1.99501 10.9936C1.99501 8.05392 2.00791 7.7058 2.0595 6.54972C2.1068 5.47529 2.28737 4.8951 2.43785 4.5083C2.63562 3.99687 2.87639 3.62727 3.25904 3.24477C3.64598 2.85798 4.01143 2.62161 4.52306 2.42391C4.91 2.27349 5.49472 2.09299 6.56527 2.04571C7.72181 1.99414 8.07006 1.98125 11.0108 1.98125ZM11.0108 0C8.02276 0 7.64872 0.0128931 6.47498 0.0644657C5.30555 0.116038 4.50156 0.305138 3.80506 0.575894C3.07846 0.859543 2.46365 1.23344 1.85313 1.84802C1.23832 2.45829 0.864273 3.07287 0.580513 3.79488C0.309651 4.49541 0.120478 5.29478 0.0688854 6.46376C0.0172927 7.64134 0.00439453 8.01524 0.00439453 11.0021C0.00439453 13.9891 0.0172927 14.363 0.0688854 15.5362C0.120478 16.7052 0.309651 17.5089 0.580513 18.2051C0.864273 18.9314 1.23832 19.546 1.85313 20.1563C2.46365 20.7666 3.07846 21.1448 3.80076 21.4241C4.50156 21.6949 5.30125 21.884 6.47068 21.9355C7.64442 21.9871 8.01846 22 11.0065 22C13.9946 22 14.3687 21.9871 15.5424 21.9355C16.7118 21.884 17.5158 21.6949 18.2123 21.4241C18.9346 21.1448 19.5494 20.7666 20.16 20.1563C20.7705 19.546 21.1488 18.9314 21.4283 18.2094C21.6991 17.5089 21.8883 16.7095 21.9399 15.5405C21.9915 14.3673 22.0044 13.9934 22.0044 11.0064C22.0044 8.01954 21.9915 7.64563 21.9399 6.47236C21.8883 5.30338 21.6991 4.49971 21.4283 3.80348C21.1574 3.07287 20.7834 2.45829 20.1686 1.84802C19.558 1.23774 18.9432 0.859543 18.2209 0.580191C17.5201 0.309435 16.7204 0.120336 15.551 0.0687634C14.373 0.0128931 13.9989 0 11.0108 0Z" fill="#121418"/>
<path d="M11.0109 5.34961C7.88952 5.34961 5.35718 7.88096 5.35718 11.0011C5.35718 14.1212 7.88952 16.6526 11.0109 16.6526C14.1322 16.6526 16.6646 14.1212 16.6646 11.0011C16.6646 7.88096 14.1322 5.34961 11.0109 5.34961ZM11.0109 14.6671C8.98587 14.6671 7.3435 13.0253 7.3435 11.0011C7.3435 8.97688 8.98587 7.33515 11.0109 7.33515C13.0359 7.33515 14.6783 8.97688 14.6783 11.0011C14.6783 13.0253 13.0359 14.6671 11.0109 14.6671Z" fill="#121418"/>
<path d="M18.2079 5.12799C18.2079 5.85861 17.6146 6.44739 16.888 6.44739C16.1571 6.44739 15.5681 5.85431 15.5681 5.12799C15.5681 4.39738 16.1614 3.80859 16.888 3.80859C17.6146 3.80859 18.2079 4.40168 18.2079 5.12799Z" fill="#121418"/>
</svg>
