<svg width="24" height="18" viewBox="0 0 24 18" fill="none" xmlns="http://www.w3.org/2000/svg">
<path fill-rule="evenodd" clip-rule="evenodd" d="M22.7227 1.79598C23.0951 2.17276 23.3625 2.64126 23.4982 3.15459C24 5.04927 24 9.0004 24 9.0004C24 9.0004 24 12.9515 23.4982 14.8462C23.3625 15.3595 23.0951 15.828 22.7227 16.2048C22.3503 16.5816 21.8861 16.8534 21.3764 16.9931C19.5 17.5004 12 17.5004 12 17.5004C12 17.5004 4.5 17.5004 2.62364 16.9931C2.11393 16.8534 1.64966 16.5816 1.27729 16.2048C0.904916 15.828 0.637506 15.3595 0.501818 14.8462C0 12.9515 0 9.0004 0 9.0004C0 9.0004 0 5.04927 0.501818 3.15459C0.637506 2.64126 0.904916 2.17276 1.27729 1.79598C1.64966 1.4192 2.11393 1.14736 2.62364 1.00765C4.5 0.500397 12 0.500397 12 0.500397C12 0.500397 19.5 0.500397 21.3764 1.00765C21.8861 1.14736 22.3503 1.4192 22.7227 1.79598ZM16 8.99982L10 5.58633V12.4133L16 8.99982Z" fill="#121418"/>
</svg>
