<svg width="12" height="12" viewBox="0 0 12 12" fill="none" xmlns="http://www.w3.org/2000/svg">
<g clip-path="url(#clip0_738_17891)">
<path d="M9.688 6.20797L4.3885 9.74097C4.35085 9.76603 4.30712 9.7804 4.26195 9.78256C4.21678 9.78472 4.17187 9.77459 4.132 9.75324C4.09213 9.7319 4.0588 9.70014 4.03556 9.66135C4.01231 9.62256 4.00002 9.57819 4 9.53297V2.46697C4.00002 2.42175 4.01231 2.37738 4.03556 2.33859C4.0588 2.29981 4.09213 2.26805 4.132 2.2467C4.17187 2.22536 4.21678 2.21523 4.26195 2.21739C4.30712 2.21955 4.35085 2.23392 4.3885 2.25897L9.688 5.79197C9.72224 5.8148 9.75031 5.84573 9.76973 5.88202C9.78915 5.9183 9.79931 5.95882 9.79931 5.99997C9.79931 6.04113 9.78915 6.08164 9.76973 6.11793C9.75031 6.15421 9.72224 6.18514 9.688 6.20797Z" fill="black"/>
</g>
<defs>
<clipPath id="clip0_738_17891">
<rect width="12" height="12" fill="white"/>
</clipPath>
</defs>
</svg>
