<svg width="12" height="12" viewBox="0 0 12 12" fill="none" xmlns="http://www.w3.org/2000/svg">
<path d="M2 11C2 9.93915 2.42143 8.92173 3.17157 8.17159C3.92172 7.42144 4.93913 7.00002 6 7.00002C7.06087 7.00002 8.07828 7.42144 8.82843 8.17159C9.57857 8.92173 10 9.93915 10 11H9C9 10.2044 8.68393 9.4413 8.12132 8.87869C7.55871 8.31609 6.79565 8.00002 6 8.00002C5.20435 8.00002 4.44129 8.31609 3.87868 8.87869C3.31607 9.4413 3 10.2044 3 11H2ZM6 6.50002C4.3425 6.50002 3 5.15752 3 3.50002C3 1.84252 4.3425 0.500015 6 0.500015C7.6575 0.500015 9 1.84252 9 3.50002C9 5.15752 7.6575 6.50002 6 6.50002ZM6 5.50002C7.105 5.50002 8 4.60502 8 3.50002C8 2.39502 7.105 1.50002 6 1.50002C4.895 1.50002 4 2.39502 4 3.50002C4 4.60502 4.895 5.50002 6 5.50002Z" fill="white"/>
</svg>
