<svg id="Capa_2" enable-background="new 0 0 453.543 453.543" viewBox="0 0 453.543 453.543" xmlns="http://www.w3.org/2000/svg"><g><path d="m226.772 0c-92.346 0-167.207 74.861-167.207 167.206s145.852 286.337 167.206 286.337c21.325 0 167.206-193.991 167.206-286.337.001-92.345-74.86-167.206-167.205-167.206zm0 227.135c-34.892 0-63.177-28.285-63.177-63.177s28.285-63.178 63.177-63.178 63.177 28.285 63.177 63.178c0 34.892-28.285 63.177-63.177 63.177z" fill="#ff7171"/><path d="m142.578 181.606c-14.488-42.416-21.379-87.516-23.307-132.221-.143-3.321-.239-6.638-.304-9.951-36.315 30.672-59.402 76.516-59.402 127.772 0 92.346 145.852 286.337 167.206 286.337 8.271 0 35.279-29.188 65.243-70.3-67.312-51.367-121.938-121.136-149.436-201.637z" fill="#f95f5f"/><g fill="#600"><path d="m191.125 45.484c0-3.728 2.28-6.75 5.092-6.75s5.092 3.022 5.092 6.75-2.28 6.749-5.092 6.749c-2.813.001-5.092-3.021-5.092-6.749z"/><path d="m252.234 45.484c0-3.728 2.28-6.75 5.092-6.75s5.092 3.022 5.092 6.75-2.28 6.749-5.092 6.749c-2.812.001-5.092-3.021-5.092-6.749z"/><path d="m209.541 58.774c.281.299 5.851 5.506 17.683 5.494 5.902.003 10.078-1.292 12.796-2.665 2.721-1.371 3.973-2.8 4.137-2.998.808-.97.677-2.411-.293-3.219s-2.411-.677-3.219.293l1.107.923-1.087-.946-.02.024 1.107.923-1.087-.946-.026.028c-.371.353-3.909 3.99-13.415 4.014-5.24-.002-8.914-1.131-11.264-2.211-1.174-.541-2.017-1.072-2.547-1.45-.265-.189-.452-.339-.564-.433l-.11-.096-.06.065.062-.063-.002-.003-.06.065.062-.063c-.902-.884-2.349-.869-3.232.033-.884.9-.869 2.348.032 3.231z"/></g><ellipse cx="184.15" cy="59.831" fill="#ffa9a9" rx="9.21" ry="5.58"/><ellipse cx="269.393" cy="59.831" fill="#ffa9a9" rx="9.21" ry="5.58"/></g></svg>