<svg id="svg4408" height="1120" width="680" xmlns="http://www.w3.org/2000/svg" xmlns:xlink="http://www.w3.org/1999/xlink" xmlns:cc="http://creativecommons.org/ns#" xmlns:dc="http://purl.org/dc/elements/1.1/" xmlns:inkscape="http://www.inkscape.org/namespaces/inkscape" xmlns:rdf="http://www.w3.org/1999/02/22-rdf-syntax-ns#" xmlns:sodipodi="http://sodipodi.sourceforge.net/DTD/sodipodi-0.dtd" xmlns:svg="http://www.w3.org/2000/svg"><defs id="defs4410"><g id="s"><g id="c"><path id="t" d="m0 0v1h.5z" transform="matrix(.951 .309 -.309 .951 0 -1)"/><use id="use11" height="512" transform="scale(-1 1)" width="512" xlink:href="#t"/></g><g id="a"><use id="use14" height="512" transform="matrix(.309 .951 -.951 .309 0 0)" width="512" xlink:href="#c"/><use id="use16" height="512" transform="matrix(-.809 .588 -.588 -.809 0 0)" width="512" xlink:href="#c"/></g><use id="use18" height="512" transform="scale(-1 1)" width="512" xlink:href="#a"/></g><clipPath id="clip"><use id="use22" height="267" width="400" xlink:href="#antarctica"/></clipPath><path id="antarctica" d="m146.39642 44.921091-.62414-.267304zm17.83255 176.420599-2.40739-1.42562-7.13302 1.78204-6.24138-3.92046v1.51472l-1.51576-2.04931 1.78325-1.78204-.26749-5.34606h2.05074l1.24828-3.56408 1.4266-.62369-1.15911-1.78204 1.78325-.62369-.26748-2.67305-1.78326-.891 2.31823-.26731-1.4266-6.50441-3.56652-3.56405-2.13991.89101.89163 2.94035h-7.40052l-6.24138-2.67304-2.40739-1.15832-11.85865-2.67304-.89162 1.42563-4.19065.35638h-1.15912l-1.78325 2.94035-5.08228-3.56408-2.67488.89104.35665 2.40573-6.598031-3.56408-.26749 2.31663-6.50889-2.94032-.356652.26728-3.20987 1.24742-.624139-2.4057-7.757141-3.83136-8.292116-2.67305-1.515767-6.86082v-1.51472l-3.20987-5.88068 1.426603-7.1281-2.674879-.89101-.891627-3.02945 4.458122-.53459h-2.05074l.267488-4.45506-6.508889 2.04932-.267488-1.78201-.891627 3.29674-3.566522 1.4256-2.407394-2.3166-.891627-2.40577-.891628-4.72236 2.050743-1.51473.891627 1.15831.624137-1.42559-1.515764-10.69218 2.407391.53461 1.159115-11.22677.356652-.35641 2.318231-1.42562-2.94237.26731-1.159113-2.67304 5.349753-5.96979-4.814774-.89102-3.566521 3.56407-1.426604-4.09865-2.139906 2.94034-.534973-2.04933-2.674882.89102-1.783255.89101 1.426603-5.34607-1.159112-.6237.624137-1.51472-1.515764.3564-.267488-3.02946h5.617258l-.267488-1.42562h-1.783258l-3.299015-5.702466-1.783255.623709-1.159115-2.049329-.624137 1.782028-1.783255-1.247416 1.783255-1.158315-2.674882-.891014.624139-1.514723-2.1399-1.158315-.53498-4.72237-2.1399-.623709 1.24827-.891014-2.40739-6.237081.26749-2.049328.89163-6.237084h1.78325l-.53497 3.831353 4.458119 6.237084 3.20987 4.187761 6.598037 1.782027v.267302l.891628-1.51472 3.566521 4.187761 1.783255 2.049326.891627.891013 10.07538 4.811459 1.783255.891013.624137.534606 4.725627 5.702472 2.67488-1.24742 19.615777-4.455046.62414-3.564064 1.4266.623707-.26748-1.158312.89162-.62371 4.190651-1.514723v-4.098642l1.4266-1.514723 1.78326-6.860809-.89163-2.673038 4.19065-10.068437v-1.514723-4.72237h2.05074l2.4074-3.564064 2.94236-.891013.35665-3.296745 4.10147-4.989662 1.78326.891014 8.3813-3.029456.89163-.891013 1.78325-1.782025-.62414-2.940342h1.78326l.89163 4.72237 9.18374 2.138432 1.51577-1.514723.62414.267304 8.02464 1.782028.26749-.267305 4.19065-2.405736.26749 2.673038 3.56652.356405 2.94237 2.316633.62412.623709 4.45812 3.831354 5.34976.356408 3.29902.534605 4.10147-1.425619.35665 2.673038 1.78328 1.158315 1.42658-2.673038h1.78328l1.24829 6.860811 1.42656.267305-.26746 2.405733-.26753.267302h.53499l3.56654-1.782025 3.299-1.158315 9.18376 3.207656 1.78324-.534606.62418 3.207659 2.40739.356405-.62418-1.51472h2.05074l.62417 3.296745 2.40739-2.673038 5.61725 3.564066 1.51575 6.504404-2.40738.623706.62417 4.989662.89158 1.51472 6.24139 15.770913-3.29902 2.940335-.26746 3.56407-2.67491 3.29674 2.9424 2.04933-1.15913.89101 2.67488 2.67304 4.10147.62371 1.24829 1.78203 1.15909 2.31663 2.94237 1.24741 3.56655-2.40573 2.40736.26731-2.94234 4.18776 2.94234 7.75179-3.56652 2.94034 1.51578 4.72237-.8916 4.18776 1.78321 2.40574 4.72564.891-4.72564 6.50441.89164 1.15834 1.15912 1.24739-2.05076 3.20767 2.05076 1.24741-10.43202 8.55373 2.40739 5.96978-.62415 3.56408-3.56654 1.15828-.89158 3.02946-4.10147 1.78204-1.24829 3.83136-.89163 2.04932 4.19066 2.13845-6.2414.53459 1.51575 3.29674-3.03153 2.94036-4.72565.891-1.51575 2.67305 3.56652 1.78201-6.77635 6.23709 2.05073 3.29674-5.34975-1.15832-5.97391 3.56408-8.02463 3.83135-1.78328 2.67305-1.15909-.89101 1.15909-2.67307-5.34976 2.04932-1.15909-2.04932-8.02464 4.72239-3.56652-1.15831-6.50888 1.15831-1.78327-.89103m.26749-172.232701-.62415-.623706h-.26746v.356404h.62412l.26749.267305zm-2.05076 171.341841 1.78327.89101zm0 0 1.78327.89101m-126.967647-123.494315.356652-2.138429-3.299019-2.049329 2.94237 4.187761h-.000003zm-7.133017-16.394636h-1.78325l.89163 2.673035.89162-2.316633v-.356405zm-.89162-2.673038-.89163.891014 1.78325 1.247418zm8.02464 19.067656.356652-2.138429-3.299022-2.049329 2.942373 4.187761zm-7.13301-16.394636h-1.78326l.89163 2.673035.89163-2.31663v-.356408zm-.89163-2.673038-.89163.891013 1.78326 1.247419zm8.024643 19.067659.356652-2.138432-3.299015-2.049326 2.942366 4.187761h-.000003zm-7.133013-16.394639h-1.78325l.89162 2.673038.89163-2.316633v-.356408zm-.89163-2.673035-.89162.89101 1.78325 1.247419zm5.34976-6.237084v-2.316633l-2.05075.534605.26749 1.514723zm-2.31824-6.504404.53498 1.158316 1.24828-2.673039-1.78326 1.247419zm2.31824 6.504404v-2.316633l-2.05075.534605.26749 1.514723zm-2.31824-6.504404.53498 1.158316 1.24828-2.673039-1.78326 1.247419zm2.31824 6.504404v-2.316633l-2.05075.534605.26749 1.514723zm-2.31824-6.504404.53498 1.158316 1.24828-2.673039-1.78326 1.247419zm31.74199 90.88333-2.050742.26734-1.783255 2.4057 2.94237-.62369.891627-2.04932zm0 0-2.050742.26734-1.783255 2.4057 2.94237-.62369.891627-2.04932zm0 0-2.050742.26734-1.783255 2.4057 2.94237-.62369.891627-2.04932zm2.139904-60.321433-.62414-.534606-1.783254-.891013 1.783254.891013z" fill="#fff" transform="translate(0 -1.5)"/><g id="lines" fill="none"><circle id="circle9" cx="133.5" cy="133.5" r="49.5"/><circle id="circle11" cx="133.5" cy="133.5" r="92.5"/><circle id="circle13" cx="133.5" cy="133.5" r="133"/><path id="axes" d="m-100 133.5h467m-233.5-233.5v467"/><use id="use16-5" height="267" transform="matrix(.866 .5 -.5 .866 84.636 -48.864)" width="400" xlink:href="#axes"/><use id="use18-9" height="267" transform="matrix(.5 .866 -.866 .5 182.364 -48.864)" width="400" xlink:href="#axes"/></g><clipPath id="clip-7"><use id="use22-3" height="267" width="400" xlink:href="#antarctica"/></clipPath><clipPath id="clip-6"><path id="antarctica-2" d="m146.39642 44.921091-.62414-.267304zm17.83255 176.420599-2.40739-1.42562-7.13302 1.78204-6.24138-3.92046v1.51472l-1.51576-2.04931 1.78325-1.78204-.26749-5.34606h2.05074l1.24828-3.56408 1.4266-.62369-1.15911-1.78204 1.78325-.62369-.26748-2.67305-1.78326-.891 2.31823-.26731-1.4266-6.50441-3.56652-3.56405-2.13991.89101.89163 2.94035h-7.40052l-6.24138-2.67304-2.40739-1.15832-11.85865-2.67304-.89162 1.42563-4.19065.35638h-1.15912l-1.78325 2.94035-5.08228-3.56408-2.67488.89104.35665 2.40573-6.598031-3.56408-.26749 2.31663-6.50889-2.94032-.356652.26728-3.20987 1.24742-.624139-2.4057-7.757141-3.83136-8.292116-2.67305-1.515767-6.86082v-1.51472l-3.20987-5.88068 1.426603-7.1281-2.674879-.89101-.891627-3.02945 4.458122-.53459h-2.05074l.267488-4.45506-6.508889 2.04932-.267488-1.78201-.891627 3.29674-3.566522 1.4256-2.407394-2.3166-.891627-2.40577-.891628-4.72236 2.050743-1.51473.891627 1.15831.624137-1.42559-1.515764-10.69218 2.407391.53461 1.159115-11.22677.356652-.35641 2.318231-1.42562-2.94237.26731-1.159113-2.67304 5.349753-5.96979-4.814774-.89102-3.566521 3.56407-1.426604-4.09865-2.139906 2.94034-.534973-2.04933-2.674882.89102-1.783255.89101 1.426603-5.34607-1.159112-.6237.624137-1.51472-1.515764.3564-.267488-3.02946h5.617258l-.267488-1.42562h-1.783258l-3.299015-5.702466-1.783255.623709-1.159115-2.049329-.624137 1.782028-1.783255-1.247416 1.783255-1.158315-2.674882-.891014.624139-1.514723-2.1399-1.158315-.53498-4.72237-2.1399-.623709 1.24827-.891014-2.40739-6.237081.26749-2.049328.89163-6.237084h1.78325l-.53497 3.831353 4.458119 6.237084 3.20987 4.187761 6.598037 1.782027v.267302l.891628-1.51472 3.566521 4.187761 1.783255 2.049326.891627.891013 10.07538 4.811459 1.783255.891013.624137.534606 4.725627 5.702472 2.67488-1.24742 19.615777-4.455046.62414-3.564064 1.4266.623707-.26748-1.158312.89162-.62371 4.190651-1.514723v-4.098642l1.4266-1.514723 1.78326-6.860809-.89163-2.673038 4.19065-10.068437v-1.514723-4.72237h2.05074l2.4074-3.564064 2.94236-.891013.35665-3.296745 4.10147-4.989662 1.78326.891014 8.3813-3.029456.89163-.891013 1.78325-1.782025-.62414-2.940342h1.78326l.89163 4.72237 9.18374 2.138432 1.51577-1.514723.62414.267304 8.02464 1.782028.26749-.267305 4.19065-2.405736.26749 2.673038 3.56652.356405 2.94237 2.316633.62412.623709 4.45812 3.831354 5.34976.356408 3.29902.534605 4.10147-1.425619.35665 2.673038 1.78328 1.158315 1.42658-2.673038h1.78328l1.24829 6.860811 1.42656.267305-.26746 2.405733-.26753.267302h.53499l3.56654-1.782025 3.299-1.158315 9.18376 3.207656 1.78324-.534606.62418 3.207659 2.40739.356405-.62418-1.51472h2.05074l.62417 3.296745 2.40739-2.673038 5.61725 3.564066 1.51575 6.504404-2.40738.623706.62417 4.989662.89158 1.51472 6.24139 15.770913-3.29902 2.940335-.26746 3.56407-2.67491 3.29674 2.9424 2.04933-1.15913.89101 2.67488 2.67304 4.10147.62371 1.24829 1.78203 1.15909 2.31663 2.94237 1.24741 3.56655-2.40573 2.40736.26731-2.94234 4.18776 2.94234 7.75179-3.56652 2.94034 1.51578 4.72237-.8916 4.18776 1.78321 2.40574 4.72564.891-4.72564 6.50441.89164 1.15834 1.15912 1.24739-2.05076 3.20767 2.05076 1.24741-10.43202 8.55373 2.40739 5.96978-.62415 3.56408-3.56654 1.15828-.89158 3.02946-4.10147 1.78204-1.24829 3.83136-.89163 2.04932 4.19066 2.13845-6.2414.53459 1.51575 3.29674-3.03153 2.94036-4.72565.891-1.51575 2.67305 3.56652 1.78201-6.77635 6.23709 2.05073 3.29674-5.34975-1.15832-5.97391 3.56408-8.02463 3.83135-1.78328 2.67305-1.15909-.89101 1.15909-2.67307-5.34976 2.04932-1.15909-2.04932-8.02464 4.72239-3.56652-1.15831-6.50888 1.15831-1.78327-.89103m.26749-172.232701-.62415-.623706h-.26746v.356404h.62412l.26749.267305zm-2.05076 171.341841 1.78327.89101zm0 0 1.78327.89101m-126.967647-123.494315.356652-2.138429-3.299019-2.049329 2.94237 4.187761h-.000003zm-7.133017-16.394636h-1.78325l.89163 2.673035.89162-2.316633v-.356405zm-.89162-2.673038-.89163.891014 1.78325 1.247418zm8.02464 19.067656.356652-2.138429-3.299022-2.049329 2.942373 4.187761zm-7.13301-16.394636h-1.78326l.89163 2.673035.89163-2.31663v-.356408zm-.89163-2.673038-.89163.891013 1.78326 1.247419zm8.024643 19.067659.356652-2.138432-3.299015-2.049326 2.942366 4.187761h-.000003zm-7.133013-16.394639h-1.78325l.89162 2.673038.89163-2.316633v-.356408zm-.89163-2.673035-.89162.89101 1.78325 1.247419zm5.34976-6.237084v-2.316633l-2.05075.534605.26749 1.514723zm-2.31824-6.504404.53498 1.158316 1.24828-2.673039-1.78326 1.247419zm2.31824 6.504404v-2.316633l-2.05075.534605.26749 1.514723zm-2.31824-6.504404.53498 1.158316 1.24828-2.673039-1.78326 1.247419zm2.31824 6.504404v-2.316633l-2.05075.534605.26749 1.514723zm-2.31824-6.504404.53498 1.158316 1.24828-2.673039-1.78326 1.247419zm31.74199 90.88333-2.050742.26734-1.783255 2.4057 2.94237-.62369.891627-2.04932zm0 0-2.050742.26734-1.783255 2.4057 2.94237-.62369.891627-2.04932zm0 0-2.050742.26734-1.783255 2.4057 2.94237-.62369.891627-2.04932zm2.139904-60.321433-.62414-.534606-1.783254-.891013 1.783254.891013z" height="267" width="400"/></clipPath><g id="lines-4" fill="none"><circle id="circle9-7" cx="133.5" cy="133.5" r="49.5"/><circle id="circle11-3" cx="133.5" cy="133.5" r="92.5"/><circle id="circle13-0" cx="133.5" cy="133.5" r="133"/><path id="axes-8" d="m-100 133.5h467m-233.5-233.5v467"/><use id="use16-2" height="267" transform="matrix(.866 .5 -.5 .866 84.636 -48.864)" width="400" xlink:href="#axes-8"/><use id="use18-4" height="267" transform="matrix(.5 .866 -.866 .5 182.364 -48.864)" width="400" xlink:href="#axes-8"/></g><clipPath id="clip-0"><use id="use22-6" height="267" width="400" xlink:href="#antarctica"/></clipPath><clipPath id="clipPath3357"><path id="path3359" d="m-253.6282-499.13126a297.59048 297.59048 0 1 1 -595.18097 0 297.59048 297.59048 0 1 1 595.18097 0z" transform="matrix(.777 0 0 .777 686.689 199.648)"/></clipPath><clipPath id="clipPath29920-9"><path id="path29922-89" d="m-254.28571 506.64789a260 248.57143 0 1 1 -520 0 260 248.57143 0 1 1 520 0z" transform="matrix(.685 0 0 .716 705.099 116.389)"/></clipPath><clipPath id="clipPath3068"><path id="path3070" d="m541.42856 102.71429a217.14285 212.14285 0 1 1 -434.28571 0 217.14285 212.14285 0 1 1 434.28571 0z" transform="matrix(1.078 0 0 .735 -1100.937 571.109)"/></clipPath></defs><g id="layer1" transform="translate(0 1056)"><path id="path3032-5" d="m664.99998-720.30169c0 179.8782-324.99999 774.30168-324.99999 774.30168s-324.999975-594.42348-324.999975-774.30168 145.507375-325.69831 324.999975-325.69831c179.49253 0 325 145.82011 325 325.69831z" fill="#479951"/><g id="g29962" fill="#fff" transform="translate(-3690.154 -2731.28)"><g id="g29913" clip-path="url(#clipPath29920-9)" fill="#fff" transform="matrix(1.348 0 0 1.348 27.194 -279.408)"/></g><g id="g3828"><path id="path3035" d="m-902.85721 363.79074c0 149.90585-121.52269 271.42856-271.42859 271.42856-149.9058 0-271.4285-121.52271-271.4285-271.42856s121.5227-271.428557 271.4285-271.428557c149.9059 0 271.42859 121.522707 271.42859 271.428557z" fill="#fff" transform="matrix(.921 0 0 .921 1421.579 -1061.506)"/><path id="path3058" d="m-902.85721 363.79074c0 149.90585-121.52269 271.42856-271.42859 271.42856-149.9058 0-271.4285-121.52271-271.4285-271.42856s121.5227-271.428557 271.4285-271.428557c149.9059 0 271.42859 121.522707 271.42859 271.428557z" fill="#e9e9e9" transform="matrix(.734 0 0 .734 1202.124 -993.519)"/></g><path id="path3286" d="m339.99998-1046v1099.99998s325-594.43428 325-774.3125c0-179.87821-145.50739-325.68748-325-325.68748z" fill="#3b3c3d" opacity=".15"/></g></svg>