<svg id="Capa_1" enable-background="new 0 0 497 497" height="512" viewBox="0 0 497 497" width="512" xmlns="http://www.w3.org/2000/svg"><g><path d="m233.5 254.215v227.785c0 8.284 6.716 15 15 15s15-6.716 15-15v-227.785l-15-15z" fill="#bddbe0"/><path d="m233.5 195v59.215c4.93.516 9.933.785 15 .785s10.07-.269 15-.785v-59.215z" fill="#a3bbc0"/><path d="m248.5 0v225c62.132 0 112.5-50.368 112.5-112.5s-50.368-112.5-112.5-112.5z" fill="#ff0f04"/><path d="m248.5 0c-62.132 0-112.5 50.368-112.5 112.5s50.368 112.5 112.5 112.5c45.563 0 82.5-50.368 82.5-112.5s-36.937-112.5-82.5-112.5z" fill="#ff4572"/></g></svg>