<svg xmlns:xlink="http://www.w3.org/1999/xlink" xmlns="http://www.w3.org/2000/svg" width="1840" height="348" viewBox="0 0 1840 348" fill="none">
<path class="sk" d="M0 4.30615V344.477H180.208V288.891H68.0178V4.30615H0Z" fill="black"></path>
<path class="sk" d="M241.191 4.30615V344.869H438.209V289.283H309.209V198.857H423.745V144.837H309.209V59.5008H438.209V4.30615H241.191Z" fill="black"></path>
<path class="sk" d="M733.343 106.866C725.525 92.774 714.97 81.8134 701.288 74.3758C687.607 66.9383 671.579 63.0238 653.598 63.0238C633.661 63.0238 615.68 67.7212 600.043 76.7245C584.407 85.7279 572.289 98.6458 563.689 115.87C555.089 132.702 550.398 152.275 550.398 174.196C550.398 196.9 554.698 216.864 563.689 233.696C572.68 250.529 585.189 263.447 600.825 272.842C616.852 281.845 635.225 286.542 656.334 286.542C682.134 286.542 703.634 279.496 720.052 265.795C736.47 252.095 747.415 232.914 752.497 208.252H635.616V155.798H819.733V215.298C815.042 239.177 805.27 261.098 790.415 281.062C775.561 301.026 756.406 317.467 732.952 329.602C709.497 341.737 682.916 348 653.989 348C621.152 348 591.443 340.563 565.253 325.687C538.671 310.812 517.953 290.457 503.098 264.23C487.853 238.002 480.426 207.861 480.426 174.587C480.426 141.314 487.853 111.172 503.098 84.5536C518.344 57.9349 539.062 37.5794 565.253 22.7043C591.834 7.82917 621.152 0.391602 653.598 0.391602C691.907 0.391602 725.134 9.78643 753.279 28.5761C781.424 47.3657 800.97 73.5929 811.524 107.258H733.343V106.866Z" fill="black"></path>
<path class="sk" d="M1459.65 257.575C1479.19 238.002 1488.97 210.601 1488.97 174.979C1488.97 139.357 1479.19 111.955 1459.65 91.9912C1440.1 72.0272 1412.74 61.8495 1376.78 61.8495H1328.69V286.934H1376.78C1412.74 286.542 1440.1 276.756 1459.65 257.575ZM1473.72 25.0531C1500.69 39.1453 1521.8 59.1093 1536.66 84.9451C1551.51 110.781 1558.94 140.923 1558.94 174.979C1558.94 209.035 1551.12 238.785 1536.27 264.621C1521.41 290.065 1500.69 310.029 1473.33 323.73C1446.36 337.822 1414.69 344.869 1379.12 344.869H1260.29V4.30615H1379.12C1415.08 4.30615 1446.36 11.3523 1473.72 25.0531Z" fill="black"></path>
<path class="sk" d="M1590.99 4.30615V59.5008H1681.29V344.869H1749.7V59.5008H1840V4.30615H1590.99Z" fill="black"></path>
<path class="sk" d="M1027.31 286.934C1011.28 285.368 996.814 281.062 984.305 273.624C968.669 264.229 956.16 251.312 947.56 234.088C938.96 216.864 934.269 196.9 934.269 174.196C934.269 151.492 938.569 131.528 947.56 114.695C956.16 97.4713 968.669 84.5534 984.305 75.5501C999.942 66.5467 1018.31 61.8493 1038.64 61.8493C1058.97 61.8493 1076.95 66.5467 1092.59 75.5501C1108.22 84.5534 1120.34 97.8628 1128.94 114.695C1136.37 128.787 1140.28 145.228 1141.84 163.235H1211.81C1210.25 134.659 1202.82 108.432 1189.14 84.9449C1173.9 58.3262 1152.79 37.5793 1126.2 22.7042C1100.01 7.43757 1070.7 0 1038.64 0C1006.98 0 977.66 7.43757 951.078 22.3127C924.497 37.1879 903.388 57.9348 887.751 84.5534C872.115 111.172 864.297 140.922 864.297 173.804C864.297 207.078 872.115 237.219 887.751 263.838C903.388 290.457 924.497 311.204 951.078 326.079C974.533 339.388 999.942 346.434 1027.7 348V286.934H1027.31Z" fill="black"></path>
<path class="sk" d="M1141.45 187.114C1139.89 204.337 1135.98 219.996 1128.94 233.696C1120.34 250.92 1107.83 264.229 1092.59 273.233C1080.47 280.279 1066.79 284.976 1051.93 286.542V347.609C1078.52 345.651 1103.53 338.605 1126.21 325.687C1152.79 310.812 1173.9 290.065 1189.14 263.447C1202.43 240.351 1209.86 214.907 1211.81 186.722H1141.45V187.114Z" fill="black"></path>
</svg>